<svg preserveAspectRatio="none" width="100%" height="100%" overflow="visible" style="display: block;" viewBox="0 0 20 20" fill="none" xmlns="http://www.w3.org/2000/svg">
<g id="SVG">
<path id="Vector" d="M10 12.5V16.6667C10 16.6667 12.525 16.2083 13.3333 15C14.2333 13.65 13.3333 10.8333 13.3333 10.8333" stroke="var(--stroke-0, #020B1B)" stroke-width="1.66667" stroke-linecap="round" stroke-linejoin="round"/>
<path id="Vector_2" d="M2.08333 17.9167C2.08333 17.9167 2.5 14.8 3.75 13.75C4.0924 13.4614 4.5293 13.3095 4.97686 13.3234C5.42441 13.3372 5.85109 13.5158 6.175 13.825C6.83333 14.475 6.84167 15.55 6.25 16.25C5.2 17.5 2.08333 17.9167 2.08333 17.9167Z" stroke="var(--stroke-0, #020B1B)" stroke-width="1.66667" stroke-linecap="round" stroke-linejoin="round"/>
<path id="Vector_3" d="M7.5 10C7.94345 8.84952 8.50184 7.74672 9.16667 6.70833C10.1377 5.15582 11.4897 3.87754 13.0942 2.99508C14.6986 2.11261 16.5022 1.65531 18.3333 1.66667C18.3333 3.93333 17.6833 7.91667 13.3333 10.8333C12.2806 11.4987 11.1639 12.057 10 12.5L7.5 10Z" stroke="var(--stroke-0, #020B1B)" stroke-width="1.66667" stroke-linecap="round" stroke-linejoin="round"/>
<path id="Vector_4" d="M7.5 10H3.33333C3.33333 10 3.79167 7.475 5 6.66667C6.35 5.76667 9.16667 6.70833 9.16667 6.70833" stroke="var(--stroke-0, #020B1B)" stroke-width="1.66667" stroke-linecap="round" stroke-linejoin="round"/>
</g>
</svg>
