<svg width="22" height="22" viewBox="0 0 22 22" fill="none" xmlns="http://www.w3.org/2000/svg">
<path fill-rule="evenodd" clip-rule="evenodd" d="M11.0572 0.75H11.0572C13.2479 0.749987 14.9686 0.749977 16.312 0.930594C17.6886 1.11568 18.7809 1.50272 19.6391 2.36091C20.4973 3.21911 20.8843 4.31137 21.0694 5.68802C21.25 7.03144 21.25 8.75214 21.25 10.9428V11.0572C21.25 13.2479 21.25 14.9686 21.0694 16.312C20.8843 17.6886 20.4973 18.7809 19.6391 19.6391C18.7809 20.4973 17.6886 20.8843 16.312 21.0694C14.9686 21.25 13.2479 21.25 11.0572 21.25H10.9428C8.7521 21.25 7.03144 21.25 5.68802 21.0694C4.31137 20.8843 3.21911 20.4973 2.36091 19.6391C1.50272 18.7809 1.11568 17.6886 0.930594 16.312C0.749977 14.9686 0.749987 13.2479 0.75 11.0572V11.0572V10.9428V10.9428C0.749987 8.75211 0.749977 7.03144 0.930594 5.68802C1.11568 4.31137 1.50272 3.21911 2.36091 2.36091C3.21911 1.50272 4.31137 1.11568 5.68802 0.930594C7.03144 0.749977 8.75212 0.749987 10.9428 0.75H10.9428H11.0572ZM15.6757 7.26285C16.0828 7.63604 16.1103 8.26861 15.7372 8.67573L10.2372 14.6757C10.0528 14.8768 9.79441 14.9938 9.52172 14.9998C9.24903 15.0057 8.98576 14.9 8.79289 14.7071L6.29289 12.2071C5.90237 11.8166 5.90237 11.1834 6.29289 10.7929C6.68342 10.4024 7.31658 10.4024 7.70711 10.7929L9.46859 12.5544L14.2628 7.32428C14.636 6.91716 15.2686 6.88966 15.6757 7.26285Z" fill="#25AAE1" fill-opacity="0.1"/>
<path fill-rule="evenodd" clip-rule="evenodd" d="M15.7372 8.67573C16.1103 8.26861 16.0828 7.63604 15.6757 7.26285C15.2686 6.88966 14.636 6.91716 14.2628 7.32428L9.46859 12.5544L7.70711 10.7929C7.31658 10.4024 6.68342 10.4024 6.29289 10.7929C5.90237 11.1834 5.90237 11.8166 6.29289 12.2071L8.79289 14.7071C8.98576 14.9 9.24903 15.0057 9.52172 14.9998C9.79441 14.9938 10.0528 14.8768 10.2372 14.6757L15.7372 8.67573Z" fill="#25AAE1"/>
</svg>
