<svg width="39" height="31" viewBox="0 0 39 31" fill="none" xmlns="http://www.w3.org/2000/svg">
<path d="M22.4128 30.2607H22.4124V0.531708H17.0834V30.2607H17.0842H22.4128Z" fill="black"/>
<path d="M7.40961 30.497C6.14398 30.497 4.59797 30.2546 4.59797 30.2546C2.21902 29.6931 0.814392 28.3717 0.814392 26.5446V10.0934C0.814392 7.62996 3.36854 6.08514 7.42139 6.08514C11.4736 6.08514 14.0272 7.62996 14.0272 10.0934V18.8617H6.14381V26.4611C6.14381 27.5469 6.64327 27.6299 7.42122 27.6299C8.19833 27.6299 8.69795 27.5469 8.69795 26.4611V20.8663H14.027V26.5446C14.027 28.3756 12.6161 29.6989 10.2279 30.258V30.2607C10.2279 30.2607 8.55845 30.497 7.40961 30.497ZM8.69795 10.1773C8.69795 9.09144 8.19833 9.00812 7.42122 9.00812C6.64327 9.00812 6.14381 9.09144 6.14381 10.1773V16.0644H8.69795V10.1773Z" fill="black"/>
<path d="M32.2356 30.5001C31.088 30.5001 29.2659 30.2609 29.2659 30.2609L29.2447 30.2573C26.8584 29.6977 25.4495 28.3747 25.4495 26.5448V10.0934C25.4495 7.62996 28.003 6.08514 32.0553 6.08514C36.1082 6.08514 38.6613 7.62996 38.6613 10.0934V26.5446C38.6613 28.3778 37.2483 29.7022 34.8555 30.2597L34.8653 30.2607C34.8651 30.2607 33.3322 30.5001 32.2356 30.5001ZM33.3322 10.1773C33.3322 9.09144 32.8326 9.00812 32.0553 9.00812C31.2781 9.00812 30.7786 9.09144 30.7786 10.1773V26.4611C30.7786 27.5464 31.2781 27.6299 32.0553 27.6299C32.8326 27.6299 33.3322 27.5469 33.3322 26.4611V10.1773Z" fill="black"/>
<path d="M0.718567 0.5V4.37902L14.1614 4.37868V0.5H0.718567Z" fill="black"/>
</svg>
