<svg width="94" height="23" viewBox="0 0 94 23" fill="none" xmlns="http://www.w3.org/2000/svg">
<g clip-path="url(#clip0_203_95)">
<path d="M64.9449 18.9257C60.9442 18.9257 59.4025 15.243 59.4025 11.5006C59.4025 7.75812 60.9442 4.07794 64.9449 4.07794C68.9414 4.07794 70.4872 7.75812 70.4872 11.5006C70.4872 15.243 68.9414 18.9257 64.9449 18.9257ZM64.9449 0.313349C58.6451 0.313349 55.0076 5.03364 55.0076 11.5006C55.0076 17.97 58.6451 22.6895 64.9449 22.6895C71.2413 22.6895 74.878 17.97 74.878 11.5006C74.878 5.03364 71.2413 0.313349 64.9449 0.313349Z" fill="black"/>
<path d="M0.612061 0.939306H16.3975V4.70472H5.00286V9.38813H15.6286V13.0585H5.00286V18.2968H16.3975V22.0605H0.612061V0.939306Z" fill="black"/>
<path d="M26.6444 11.961H22.6692V4.70473V4.70063H26.6444C29.4074 4.70063 31.2451 5.90304 31.2451 8.33162C31.2451 10.7594 29.4074 11.961 26.6444 11.961ZM18.28 22.0605H22.6692V15.7231H26.6444C32.0245 15.7231 35.635 13.0806 35.635 8.33162C35.635 3.58183 32.0245 0.940136 26.6444 0.940136H18.28V22.0605Z" fill="black"/>
<path d="M81.0446 0.939306H76.5366V22.0605H80.8414V13.5052C80.8414 11.1635 80.7578 9.0865 80.6782 7.2497C81.1856 8.30703 82.7273 11.4839 83.438 12.6773L89.041 22.0605H93.549V0.939306H89.2443V9.28076C89.2443 11.62 89.3303 13.915 89.4074 15.7477C88.9 14.6904 87.3624 11.5151 86.6411 10.3233L81.0446 0.939306Z" fill="black"/>
<path d="M40.6215 15.0728C40.6215 17.9112 42.9829 19.0144 45.4943 19.0144C47.1335 19.0144 49.7957 18.539 49.7957 16.3588C49.7957 14.0564 46.5434 13.6212 43.405 12.786C40.1142 11.9147 36.9446 10.6803 36.9446 6.76657C36.9446 2.40364 41.0715 0.311924 44.9263 0.311924C49.3769 0.311924 53.4702 2.25447 53.4702 7.18376H49.0785C48.9294 4.61502 46.9573 3.95603 44.7164 3.95603C43.2214 3.95603 41.3387 4.58387 41.3387 6.37888C41.3387 8.02143 42.4133 8.2747 47.7581 9.65087C49.3138 10.0394 54.1882 10.9803 54.1882 15.8186C54.1882 19.7349 51.1104 22.6602 45.3107 22.6602C40.5928 22.6602 36.1709 20.3316 36.2291 15.0728H40.6215Z" fill="black"/>
</g>
<defs>
<clipPath id="clip0_203_95">
<rect width="93.5607" height="23" fill="white" transform="translate(0.300293)"/>
</clipPath>
</defs>
</svg>
