<svg width="44" height="44" viewBox="0 0 44 44" fill="none" xmlns="http://www.w3.org/2000/svg">
<rect width="44" height="44" rx="8" fill="#F7F7F7"/>
<path d="M21.9961 11.25C23.0454 11.25 23.8719 12.0425 24.3995 13.1119L26.1616 16.6652C26.215 16.7751 26.3417 16.93 26.5321 17.0716C26.7223 17.2131 26.9086 17.2912 27.0311 17.3118L30.2207 17.8461C31.3729 18.0397 32.3386 18.6045 32.6521 19.5879C32.9653 20.5705 32.5064 21.5916 31.6778 22.4216L31.677 22.4225L29.1991 24.9209C29.1009 25.0199 28.9909 25.2064 28.9219 25.4494C28.8534 25.6908 28.8473 25.9107 28.8784 26.0527L28.8788 26.0547L29.5877 29.1454C29.8818 30.4317 29.7843 31.7073 28.8771 32.3742C27.9667 33.0433 26.7227 32.7467 25.5925 32.0736L22.6026 30.289C22.477 30.214 22.2614 30.1532 22.0011 30.1532C21.7427 30.1532 21.5226 30.2132 21.3888 30.291L21.3869 30.2921L18.4029 32.0732C17.2741 32.7487 16.0315 33.04 15.1211 32.3702C14.2145 31.7032 14.1121 30.43 14.4071 29.1447L15.1159 26.0547L15.1163 26.0527C15.1474 25.9107 15.1413 25.6908 15.0728 25.4494C15.0038 25.2064 14.8938 25.0199 14.7956 24.9209L12.3159 22.4206C11.4926 21.5906 11.0352 20.5704 11.3459 19.5893C11.6576 18.6052 12.6214 18.0398 13.7743 17.8461L16.9613 17.3122L16.9623 17.312C17.0792 17.2917 17.2627 17.2146 17.4525 17.0727C17.6426 16.9305 17.7696 16.7754 17.8231 16.6652L17.8258 16.6597L19.5856 13.111L19.5863 13.1096C20.119 12.0411 20.948 11.25 21.9961 11.25Z" fill="#25AAE1"/>
</svg>
