<svg width="151" height="33" viewBox="0 0 151 33" fill="none" xmlns="http://www.w3.org/2000/svg">
<path d="M150.719 14.9765V12.3404H147.445V8.24238L147.335 8.27631L144.26 9.21705L144.2 9.23546V12.3406H139.347V10.6108C139.347 9.8053 139.527 9.18892 139.882 8.77785C140.234 8.37172 140.739 8.16524 141.382 8.16524C141.844 8.16524 142.323 8.27414 142.804 8.48888L142.925 8.54281V5.76671L142.868 5.74583C142.419 5.5843 141.808 5.50296 141.05 5.50296C140.095 5.50296 139.228 5.71074 138.471 6.12253C137.714 6.5349 137.119 7.12359 136.701 7.87206C136.286 8.61966 136.075 9.48312 136.075 10.4386V12.3404H133.795V14.9765H136.075V26.0816H139.347V14.9765H144.2V22.0336C144.2 24.94 145.571 26.4129 148.274 26.4129C148.719 26.4129 149.186 26.3609 149.664 26.2589C150.15 26.1542 150.481 26.0497 150.676 25.9381L150.719 25.9125V23.2521L150.586 23.3402C150.408 23.4585 150.187 23.5552 149.928 23.6271C149.667 23.7003 149.45 23.737 149.281 23.737C148.648 23.737 148.179 23.5663 147.889 23.2295C147.595 22.8896 147.445 22.2953 147.445 21.4639V14.9765H150.719ZM126.488 23.7374C125.3 23.7374 124.364 23.3436 123.704 22.5679C123.04 21.7883 122.704 20.6767 122.704 19.2644C122.704 17.8074 123.04 16.667 123.705 15.8736C124.365 15.0854 125.292 14.6853 126.461 14.6853C127.596 14.6853 128.499 15.0674 129.146 15.8215C129.796 16.5795 130.126 17.7108 130.126 19.1848C130.126 20.677 129.816 21.8232 129.204 22.5899C128.597 23.3509 127.683 23.7374 126.488 23.7374ZM126.634 12.0094C124.368 12.0094 122.568 12.6733 121.285 13.9828C120.002 15.2924 119.352 17.1047 119.352 19.3699C119.352 21.5213 119.987 23.2518 121.239 24.5126C122.491 25.7738 124.194 26.4126 126.302 26.4126C128.499 26.4126 130.263 25.7394 131.545 24.4118C132.828 23.0857 133.477 21.2905 133.477 19.0783C133.477 16.8932 132.868 15.1497 131.665 13.8974C130.461 12.6445 128.768 12.0094 126.634 12.0094ZM114.077 12.0094C112.535 12.0094 111.26 12.4036 110.286 13.181C109.307 13.9629 108.809 14.9885 108.809 16.2295C108.809 16.8746 108.917 17.4476 109.128 17.9337C109.34 18.4213 109.669 18.8506 110.106 19.2109C110.539 19.5684 111.208 19.9427 112.095 20.3236C112.84 20.6303 113.396 20.8897 113.749 21.0942C114.094 21.2945 114.339 21.4959 114.477 21.6921C114.611 21.8841 114.68 22.1468 114.68 22.471C114.68 23.3942 113.988 23.8434 112.566 23.8434C112.038 23.8434 111.436 23.7332 110.777 23.516C110.122 23.3021 109.504 22.9888 108.945 22.5872L108.809 22.4897V25.6401L108.859 25.6633C109.322 25.877 109.906 26.0572 110.594 26.199C111.28 26.341 111.904 26.4132 112.446 26.4132C114.119 26.4132 115.466 26.0171 116.449 25.2351C117.438 24.4478 117.939 23.398 117.939 22.1141C117.939 21.1878 117.669 20.3935 117.137 19.7529C116.609 19.1176 115.692 18.5342 114.413 18.0186C113.395 17.6097 112.742 17.2703 112.473 17.0097C112.213 16.758 112.081 16.4021 112.081 15.9513C112.081 15.5517 112.244 15.2315 112.578 14.9723C112.915 14.7117 113.383 14.5792 113.971 14.5792C114.516 14.5792 115.074 14.6653 115.628 14.8341C116.183 15.0028 116.67 15.2289 117.076 15.5054L117.21 15.5968V12.6084L117.158 12.5863C116.783 12.4255 116.289 12.2879 115.688 12.1763C115.091 12.0654 114.548 12.0094 114.077 12.0094ZM100.279 23.7374C99.0918 23.7374 98.1551 23.3436 97.4954 22.5679C96.8313 21.7883 96.4955 20.677 96.4955 19.2644C96.4955 17.8074 96.8317 16.667 97.4961 15.8736C98.1558 15.0854 99.0831 14.6853 100.253 14.6853C101.387 14.6853 102.29 15.0674 102.937 15.8215C103.588 16.5795 103.918 17.7108 103.918 19.1848C103.918 20.677 103.607 21.8232 102.995 22.5899C102.388 23.3509 101.474 23.7374 100.279 23.7374ZM100.425 12.0094C98.1586 12.0094 96.3587 12.6733 95.0762 13.9828C93.7939 15.2924 93.1433 17.1047 93.1433 19.3699C93.1433 21.5222 93.7784 23.2518 95.0303 24.5126C96.2822 25.7738 97.9858 26.4126 100.094 26.4126C102.29 26.4126 104.054 25.7394 105.337 24.4118C106.619 23.0857 107.269 21.2905 107.269 19.0783C107.269 16.8932 106.659 15.1497 105.456 13.8974C104.252 12.6445 102.559 12.0094 100.425 12.0094ZM88.1763 14.7201V12.3404H84.944V26.0813H88.1763V19.0523C88.1763 17.8571 88.4473 16.8752 88.982 16.1335C89.51 15.4007 90.2135 15.0294 91.0725 15.0294C91.3636 15.0294 91.6904 15.0774 92.0444 15.1723C92.3947 15.2667 92.6484 15.3693 92.7981 15.4771L92.9339 15.5756V12.3169L92.8816 12.2945C92.5806 12.1666 92.1547 12.102 91.6159 12.102C90.8036 12.102 90.0768 12.363 89.4542 12.8769C88.9077 13.3286 88.5127 13.9479 88.2107 14.7201H88.1763ZM79.1556 12.0094C77.6727 12.0094 76.3501 12.3274 75.2251 12.9542C74.0977 13.5825 73.2259 14.4794 72.6327 15.62C72.0421 16.7577 71.7422 18.0868 71.7422 19.5689C71.7422 20.8672 72.033 22.0587 72.6076 23.1087C73.1825 24.1605 73.9962 24.9834 75.0263 25.5541C76.0549 26.1241 77.2437 26.4131 78.56 26.4131C80.0961 26.4131 81.4076 26.106 82.4591 25.5003L82.5016 25.476V22.5147L82.3657 22.6139C81.8894 22.9608 81.3571 23.2378 80.7844 23.4373C80.2131 23.6367 79.6923 23.7374 79.2355 23.7374C77.9672 23.7374 76.9491 23.3406 76.21 22.5582C75.4694 21.7748 75.0938 20.6747 75.0938 19.2904C75.0938 17.8974 75.4855 16.769 76.2573 15.9365C77.0268 15.1064 78.0468 14.6853 79.2889 14.6853C80.3513 14.6853 81.3865 15.045 82.366 15.7555L82.5016 15.854V12.7338L82.4578 12.7091C82.0892 12.5028 81.5865 12.3324 80.9624 12.2033C80.341 12.0744 79.7331 12.0094 79.1556 12.0094ZM69.5161 12.3406H66.2838V26.0813H69.5161V12.3406ZM67.933 6.48691C67.401 6.48691 66.9371 6.66801 66.5559 7.02687C66.1731 7.38676 65.9789 7.83987 65.9789 8.37462C65.9789 8.90096 66.1707 9.3458 66.5499 9.69612C66.9266 10.0454 67.3921 10.2225 67.9332 10.2225C68.4742 10.2225 68.9413 10.0454 69.3225 9.6967C69.7062 9.3458 69.9008 8.9011 69.9008 8.37462C69.9008 7.85857 69.7114 7.4101 69.3383 7.04137C68.9656 6.67337 68.4926 6.48691 67.933 6.48691ZM59.8683 11.3267V26.0813H63.167V6.90754H58.6015L52.7984 21.1493L47.1669 6.90754H42.4155V26.0812H45.5154V11.3253H45.6218L51.5686 26.0813H53.908L59.7619 11.3267H59.8683Z" fill="black"/>
<path d="M16.0343 15.7055H0.828857V0.5H16.0343V15.7055Z" fill="black"/>
<path d="M32.8226 15.7055H17.6174V0.5H32.8226V15.7055Z" fill="black"/>
<path d="M16.0339 32.4998H0.828857V17.2944H16.0339V32.4998Z" fill="black"/>
<path d="M32.8226 32.4998H17.6174V17.2944H32.8226V32.4998Z" fill="black"/>
</svg>
