<svg preserveAspectRatio="xMidYMid meet" width="100%" height="100%" overflow="visible" style="display: block;" viewBox="0 0 152 24" fill="none" xmlns="http://www.w3.org/2000/svg">
<g id="toshiba.svg">
<path id="Vector" d="M33.2688 0.576114C26.6016 0.576114 23.4039 1.74827 22.9398 7.75443C22.8413 9.1704 22.7944 10.5864 22.8178 12.0024C22.8178 13.3714 22.8413 14.8109 22.9398 16.2503C23.4039 22.2565 26.6016 23.4286 33.2454 23.4286C39.9126 23.4286 43.1337 22.2565 43.5745 16.2503C43.6963 14.8109 43.7198 13.3667 43.7198 12.0024C43.7198 10.6379 43.6963 9.19384 43.5745 7.75443C43.1337 1.74827 39.9126 0.576114 33.2688 0.576114ZM56.9559 0.576114C54.3912 0.576114 51.8265 0.819926 50.7997 1.33098C48.7742 2.30623 47.3816 3.69875 47.3816 7.70286C47.3816 10.0472 48.0146 11.8054 49.2149 12.6822C50.9731 13.9997 52.6845 14.1216 57.3966 14.3654C59.3237 14.4639 60.3504 14.853 60.3504 16.4894C60.3504 18.5664 58.5171 18.5664 56.8105 18.5664C55.0757 18.5664 54.5413 18.4211 53.9551 17.9569C53.4159 17.5678 53.2941 16.8598 53.2941 15.7814H47.3347C47.3347 18.8337 47.4098 21.3233 50.2886 22.5705C52.8533 23.6958 60.7161 23.6958 63.0839 22.6456C65.1375 21.7407 66.6003 20.545 66.6003 16.4425C66.6003 13.6105 66.0377 11.8523 63.8387 10.5582C62.3009 9.62989 57.9311 9.50799 55.7321 9.36264C54.1192 9.26417 53.5097 8.67809 53.5097 7.23869C53.5097 5.38198 55.2914 5.33509 56.8293 5.33509C58.0765 5.33509 58.9533 5.43355 59.5627 5.96806C59.8065 6.21187 60.1019 6.60103 60.1254 7.89509H66.033C66.033 5.35384 65.9346 2.59691 63.2011 1.3263C62.104 0.838678 59.5159 0.571429 56.9512 0.571429L56.9559 0.576114ZM70.7545 0.965273V23.0394H76.9576V14.5154H84.1875V23.0394H90.4141V0.965273H84.1875V9.02505H76.9576V0.965273H70.7545ZM95.881 0.965273V23.0394H102.159V0.965273H95.881ZM107.724 0.965273V23.0394H119.521C124.942 23.0394 126.775 20.6951 126.775 17.0801C126.775 14.5905 126.189 12.3681 122.747 11.5101C125.531 10.7786 126.338 9.11882 126.338 6.72293C126.338 1.88894 123.31 0.960587 118.963 0.960587L107.724 0.965273ZM135.05 0.965273L128.383 23.0394H134.853L136.025 18.9368H143.279L144.474 23.0394H150.944L144.254 0.965273H135.05ZM0.912473 0.965273V6.48381H7.50471V23.0394H14.0969V6.48381H20.6891V0.988717H0.907785L0.912473 0.965273ZM33.2688 5.72425C35.8803 5.72425 37.2261 6.14154 37.3949 9.53611C37.4183 10.0753 37.4417 10.7833 37.4417 12.0024C37.4417 13.2214 37.4183 13.9294 37.3949 14.4686C37.2261 17.8632 35.8803 18.2805 33.2688 18.2805C30.6573 18.2805 29.2881 17.8632 29.1429 14.4686C29.0959 13.6386 29.0678 12.8322 29.0959 12.0024C29.0959 10.7833 29.0959 10.0753 29.1429 9.53611C29.2881 6.14154 30.6573 5.72425 33.2688 5.72425ZM113.928 6.01963H118.25C119.376 6.01963 120.083 6.55882 120.083 7.85289C120.083 8.95003 119.376 9.61113 118.25 9.61113H113.928V6.01963ZM139.645 6.40879H139.669L141.89 14.0513H137.446L139.645 6.40879ZM113.951 13.9575H118.25C120.009 13.9575 120.351 14.7406 120.351 15.983C120.351 17.2255 119.666 17.985 118.25 17.985H113.928V13.9575H113.951Z" fill="white"/>
</g>
</svg>
