<svg width="152" height="23" viewBox="0 0 152 23" fill="none" xmlns="http://www.w3.org/2000/svg">
<path d="M125.038 0.715516L125.335 17.6101H125.189L120.284 0.715516H112.244V21.9973H117.563L117.266 4.51433H117.412L122.661 21.9973H130.357V0.715516H125.038ZM23.6847 0.715516L19.6646 22.2186H25.4735L28.4391 2.65493H28.5615L31.4565 22.2186H37.2182L33.2453 0.715516H23.6847ZM56.1935 0.715516L53.5432 17.1158H53.3973L50.7236 0.715516H41.9444L41.5254 22.2186H46.92L47.066 2.87618H47.113L50.7188 22.2186H56.1841L59.7899 2.87618H59.9358L60.0817 22.2186H65.4763L64.9632 0.715516H56.1935ZM10.5889 16.1132C10.8101 16.6027 10.7348 17.3371 10.6642 17.6807C10.5183 18.4151 10.0005 19.1259 8.57886 19.1259C7.20432 19.1259 6.4229 18.3398 6.4229 17.1912V15.1058H0.661133V16.7487C0.661133 21.5784 4.45995 23 8.50825 23C12.3824 23 15.6163 21.6537 16.1341 18.1232C16.4307 16.2591 16.2094 15.0352 16.1341 14.5927C15.1267 10.0549 6.91717 8.78388 6.35229 6.25604C6.27697 5.81355 6.27697 5.39931 6.35229 5.10275C6.49822 4.39194 6.98778 3.6576 8.287 3.6576C9.58622 3.6576 10.297 4.44372 10.297 5.59231V6.89153H15.6916V5.3946C15.6916 0.710806 11.4503 0 8.43293 0C4.60587 0 1.44726 1.27569 0.882377 4.73086C0.73645 5.66292 0.661133 6.54318 0.957694 7.62587C1.81443 12.0649 9.51561 13.3641 10.5936 16.1085L10.5889 16.1132ZM80.5868 16.1132C80.8081 16.6027 80.7328 17.2665 80.6622 17.6807C80.5162 18.4151 79.9984 19.1259 78.5768 19.1259C77.2023 19.1259 76.4209 18.3398 76.4209 17.1912V15.1058H70.6591V16.7487C70.6591 21.5031 74.3873 22.9529 78.4309 22.9529C82.305 22.9529 85.4683 21.6537 85.9814 18.0479C86.278 16.1838 86.0567 15.0305 85.9814 14.5174C85.1247 10.0548 76.9857 8.70856 76.4209 6.25604C76.3455 5.81355 76.3455 5.39931 76.4209 5.10275C76.5432 4.39194 77.0563 3.6576 78.3556 3.6576C79.5795 3.6576 80.3656 4.44372 80.3656 5.59231V6.89153H85.6849V5.3946C85.6849 0.710806 81.5189 0 78.5015 0C74.6744 0 71.5864 1.20037 71.0215 4.73086C70.8756 5.66292 70.8756 6.54318 71.0686 7.62587C71.9536 12.0649 79.5042 13.2888 80.5821 16.1085L80.5868 16.1132ZM98.7053 18.9847C100.226 18.9847 100.64 17.9773 100.791 17.4171C100.866 17.1959 100.866 16.8287 100.866 16.6075V0.720221H106.331V16.1885C106.331 16.6075 106.331 17.4124 106.256 17.6101C105.912 21.6537 102.725 22.9529 98.7759 22.9529C94.8265 22.9529 91.6679 21.6537 91.296 17.6101C91.296 17.4124 91.2207 16.6027 91.2207 16.1885V0.720221H96.6859V16.6075C96.6859 16.904 96.6859 17.1959 96.7612 17.4171C96.7612 17.982 97.2037 18.9847 98.6959 18.9847H98.7053ZM143.599 18.7634C145.195 18.7634 145.684 17.756 145.83 17.1959C145.906 16.9746 145.906 16.6075 145.906 16.4097V13.2982H143.674V10.1349H151.3V15.8966C151.3 16.3391 151.3 16.6075 151.225 17.3418C150.858 21.2912 147.473 22.6611 143.674 22.6611C139.847 22.6611 136.491 21.2865 136.124 17.3418C136.049 16.6075 136.049 16.3344 136.049 15.8966V6.82562C136.049 6.48199 136.124 5.74765 136.124 5.40402C136.613 1.36042 139.852 0.0611976 143.674 0.0611976C147.473 0.0611976 150.783 1.36042 151.225 5.40402C151.3 6.0395 151.3 6.82562 151.3 6.82562V7.55997H145.906V6.33607C145.906 6.33607 145.906 5.82296 145.83 5.5264C145.755 5.03684 145.317 3.95886 143.674 3.95886C142.079 3.95886 141.664 4.96623 141.518 5.5264C141.443 5.82296 141.443 6.19014 141.443 6.55731V16.4144C141.443 16.6828 141.443 16.9793 141.518 17.2006C141.518 17.7654 142.083 18.7681 143.604 18.7681L143.599 18.7634Z" fill="black"/>
</svg>
