<svg width="44" height="44" viewBox="0 0 44 44" fill="none" xmlns="http://www.w3.org/2000/svg">
<rect width="44" height="44" rx="8" fill="#F7F7F7"/>
<path fill-rule="evenodd" clip-rule="evenodd" d="M11.25 22.625C11.25 21.0372 12.4972 19.75 14.0357 19.75C16.0871 19.75 17.75 21.4662 17.75 23.5833V27.4167C17.75 29.5338 16.0871 31.25 14.0357 31.25C12.4972 31.25 11.25 29.9628 11.25 28.375V22.625ZM14.0357 21.6667C13.5229 21.6667 13.1071 22.0957 13.1071 22.625V28.375C13.1071 28.9043 13.5229 29.3333 14.0357 29.3333C15.0614 29.3333 15.8929 28.4752 15.8929 27.4167V23.5833C15.8929 22.5248 15.0614 21.6667 14.0357 21.6667Z" fill="#25AAE1"/>
<path d="M22.799 13.185C23.5298 12.5489 24.6525 12.6171 25.2964 13.3456C25.4097 13.4875 25.6704 13.8328 25.807 14.0793C26.4367 15.1197 26.6286 16.3588 26.3392 17.5362C26.3068 17.6678 26.2656 17.8008 26.2023 18.0054L25.9289 18.8882C25.8154 19.2547 25.7468 19.4792 25.7117 19.6473C25.6855 19.74 25.6985 19.9283 25.9601 19.9398C26.1402 19.9558 26.8457 19.9565 27.2394 19.9565C28.4766 19.9565 29.4811 19.9565 30.2488 20.0581C31.0337 20.162 31.7462 20.3913 32.2315 20.9995C32.3273 21.1196 32.4127 21.2476 32.4867 21.382C32.8663 22.0717 32.7859 22.8147 32.5573 23.5625C32.335 24.29 31.9188 25.186 31.409 26.2837C30.9359 27.3024 30.516 28.2065 30.1401 28.8407C29.7512 29.4967 29.3355 30.0124 28.7609 30.4046C28.0878 30.864 27.1903 31.1044 26.4221 31.1783C25.6771 31.25 24.7621 31.25 23.6144 31.25C22.2303 31.25 20.5147 31.25 19.6405 31.1361C18.7358 31.0183 17.9738 30.7667 17.3663 30.1781C16.7555 29.5863 16.4914 28.8385 16.3682 27.9508C16.25 27.0991 16.25 26.0173 16.2501 24.6801L16.25 23.5075C16.2496 22.1895 16.2494 21.3281 16.5591 20.5294C16.8681 19.7326 17.451 19.0875 18.3472 18.0957L22.5574 13.4337C22.6369 13.3454 22.7182 13.2553 22.799 13.185Z" fill="#25AAE1"/>
</svg>
