<svg width="44" height="44" viewBox="0 0 44 44" fill="none" xmlns="http://www.w3.org/2000/svg">
<rect width="44" height="44" rx="8" fill="#F7F7F7"/>
<path d="M14.5354 16.75L14.5856 16.75L29.4646 16.75C29.9568 16.7499 30.4052 16.7499 30.7642 16.8024C31.1588 16.8601 31.5792 16.9981 31.8925 17.3806C32.2023 17.7589 32.2601 18.1972 32.2487 18.5957C32.2381 18.9638 32.1625 19.4144 32.0784 19.9159L30.8588 27.191L30.8588 27.1911C30.6661 28.3404 30.5103 29.2701 30.2959 29.997C30.0731 30.7522 29.7632 31.3781 29.2054 31.8613C28.6454 32.3465 27.9864 32.5572 27.2166 32.6557C26.4801 32.75 25.5596 32.75 24.4285 32.75H19.5715C18.4403 32.75 17.5199 32.75 16.7834 32.6557C16.0136 32.5572 15.3545 32.3465 14.7945 31.8613C14.2368 31.3781 13.9269 30.7522 13.7041 29.997C13.4897 29.2701 13.3339 28.3404 13.1412 27.1911L11.9296 19.9638L11.9216 19.9159C11.8375 19.4144 11.7619 18.9638 11.7513 18.5957C11.7399 18.1972 11.7976 17.7589 12.1075 17.3806C12.4208 16.9981 12.8412 16.8601 13.2358 16.8024C13.5948 16.7499 14.0432 16.7499 14.5354 16.75Z" fill="#25AAE1"/>
<path fill-rule="evenodd" clip-rule="evenodd" d="M22 13.25C19.7909 13.25 18 15.0409 18 17.25V17.75C18 18.3023 17.5523 18.75 17 18.75C16.4477 18.75 16 18.3023 16 17.75V17.25C16 13.9363 18.6863 11.25 22 11.25C25.3137 11.25 28 13.9363 28 17.25V17.75C28 18.3023 27.5523 18.75 27 18.75C26.4477 18.75 26 18.3023 26 17.75V17.25C26 15.0409 24.2091 13.25 22 13.25Z" fill="#25AAE1"/>
</svg>
