<svg width="44" height="44" viewBox="0 0 44 44" fill="none" xmlns="http://www.w3.org/2000/svg">
<rect width="44" height="44" rx="8" fill="#F7F7F7"/>
<path fill-rule="evenodd" clip-rule="evenodd" d="M22.0002 14C18.7489 14 16.3149 16.0949 16.0285 18.5206C16.1506 18.573 16.2683 18.6268 16.375 18.6757C16.7312 18.8348 17.4027 19.1348 17.6585 19.8919C17.7515 20.1672 17.7508 20.4616 17.7501 20.7355V25.2645C17.7508 25.5384 17.7515 25.8327 17.6585 26.1081C17.4027 26.8652 16.7312 27.1652 16.375 27.3243C16.0121 27.4904 15.5213 27.7144 15.1636 27.7434C14.7663 27.7755 14.364 27.6906 14.0149 27.4947C13.6979 27.3168 13.4599 27.0265 13.2189 26.7323C13.1317 26.6265 12.9667 26.4318 12.8508 26.2975L12.8508 26.2975L12.8508 26.2975L12.8508 26.2975C12.6389 26.052 12.3984 25.7733 12.2001 25.5137C11.8724 25.0849 11.5441 24.5711 11.381 23.9741C11.2063 23.3348 11.2063 22.6652 11.381 22.0259C11.4993 21.5927 11.7135 21.2104 11.9961 20.8091C12.2698 20.4205 12.736 19.851 13.192 19.2971L13.1921 19.2971C13.2656 19.2039 13.3667 19.0757 13.4414 18.9901C13.5767 18.8351 13.764 18.6461 14.0149 18.5053L14.0196 18.5026C14.3135 14.7495 17.9107 12 22.0002 12C26.0897 12 29.6869 14.7495 29.9809 18.5026L29.9855 18.5053C30.2364 18.6461 30.4237 18.8351 30.5591 18.9901C30.6338 19.0757 30.7349 19.2039 30.8084 19.2971L30.8084 19.2971C31.2644 19.851 31.7306 20.4205 32.0044 20.8091C32.287 21.2104 32.5011 21.5927 32.6195 22.0259C32.7941 22.6652 32.7941 23.3348 32.6195 23.9741C32.4564 24.5711 32.1281 25.0849 31.8004 25.5137C31.6021 25.7733 31.3616 26.052 31.1497 26.2975L31.1497 26.2975L31.1496 26.2975C31.0338 26.4318 30.8688 26.6265 30.7816 26.7323L30.7816 26.7324C30.5443 27.0219 30.3099 27.3078 30.0002 27.4864V27.8C30.0002 30.3163 27.5419 32 25.0002 32H23.0002C22.4479 32 22.0002 31.5523 22.0002 31C22.0002 30.4477 22.4479 30 23.0002 30H25.0002C26.8768 30 28.0002 28.8183 28.0002 27.8V27.4914C27.868 27.4353 27.7403 27.3769 27.6255 27.3243C27.2693 27.1652 26.5977 26.8652 26.342 26.1081C26.2489 25.8327 26.2497 25.5384 26.2503 25.2645V20.7355C26.2497 20.4616 26.2489 20.1672 26.342 19.8919C26.5977 19.1348 27.2693 18.8348 27.6255 18.6757C27.7321 18.6268 27.8498 18.573 27.972 18.5206C27.6856 16.0949 25.2516 14 22.0002 14Z" fill="#25AAE1"/>
</svg>
