<svg width="133" height="21" viewBox="0 0 133 21" fill="none" xmlns="http://www.w3.org/2000/svg">
<path d="M29.1102 0.5041C23.2764 0.5041 20.4784 1.52974 20.0723 6.78513C19.9861 8.0241 19.9451 9.26308 19.9656 10.5021C19.9656 11.7 19.9861 12.9595 20.0723 14.219C20.4784 19.4744 23.2764 20.5 29.0897 20.5C34.9235 20.5 37.742 19.4744 38.1277 14.219C38.2343 12.9595 38.2548 11.6959 38.2548 10.5021C38.2548 9.3082 38.2343 8.04461 38.1277 6.78513C37.742 1.52974 34.9235 0.5041 29.1102 0.5041ZM49.8364 0.5041C47.5923 0.5041 45.3482 0.717435 44.4497 1.16461C42.6774 2.01795 41.4589 3.23641 41.4589 6.74C41.4589 8.79128 42.0128 10.3297 43.063 11.0969C44.6015 12.2497 46.0989 12.3564 50.222 12.5697C51.9082 12.6559 52.8066 12.9964 52.8066 14.4282C52.8066 16.2456 51.2025 16.2456 49.7092 16.2456C48.1912 16.2456 47.7236 16.1185 47.2107 15.7123C46.7389 15.3718 46.6323 14.7523 46.6323 13.8087H41.4179C41.4179 16.4795 41.4836 18.6579 44.0025 19.7492C46.2466 20.7338 53.1266 20.7338 55.1984 19.8149C56.9953 19.0231 58.2753 17.9769 58.2753 14.3872C58.2753 11.9092 57.783 10.3708 55.8589 9.23846C54.5133 8.42615 50.6897 8.31949 48.7656 8.19231C47.3543 8.10615 46.821 7.59333 46.821 6.33385C46.821 4.70923 48.38 4.6682 49.7256 4.6682C50.8169 4.6682 51.5841 4.75436 52.1174 5.22205C52.3307 5.43539 52.5892 5.7759 52.6097 6.9082H57.7789C57.7789 4.68461 57.6928 2.2723 55.301 1.16051C54.341 0.733843 52.0764 0.5 49.8323 0.5L49.8364 0.5041ZM61.9102 0.844614V20.1595H67.3379V12.701H73.6641V20.1595H79.1123V0.844614H73.6641V7.89692H67.3379V0.844614H61.9102ZM83.8959 0.844614V20.1595H89.3892V0.844614H83.8959ZM94.2589 0.844614V20.1595H104.581C109.324 20.1595 110.928 18.1082 110.928 14.9451C110.928 12.7667 110.415 10.8221 107.404 10.0713C109.84 9.43128 110.546 7.97897 110.546 5.88256C110.546 1.65282 107.896 0.840514 104.093 0.840514L94.2589 0.844614ZM118.169 0.844614L112.335 20.1595H117.996L119.022 16.5697H125.369L126.415 20.1595H132.076L126.222 0.844614H118.169ZM0.798414 0.844614V5.67333H6.56662V20.1595H12.3348V5.67333H18.103V0.865127H0.794312L0.798414 0.844614ZM29.1102 5.00872C31.3953 5.00872 32.5728 5.37385 32.7205 8.3441C32.741 8.8159 32.7615 9.43538 32.7615 10.5021C32.7615 11.5687 32.741 12.1882 32.7205 12.66C32.5728 15.6303 31.3953 15.9954 29.1102 15.9954C26.8251 15.9954 25.6271 15.6303 25.5 12.66C25.4589 11.9338 25.4343 11.2282 25.4589 10.5021C25.4589 9.43538 25.4589 8.8159 25.5 8.3441C25.6271 5.37385 26.8251 5.00872 29.1102 5.00872ZM99.6866 5.26718H103.469C104.454 5.26718 105.073 5.73897 105.073 6.87128C105.073 7.83128 104.454 8.40974 103.469 8.40974H99.6866V5.26718ZM122.189 5.60769H122.21L124.154 12.2949H120.265L122.189 5.60769ZM99.7071 12.2128H103.469C105.008 12.2128 105.307 12.898 105.307 13.9851C105.307 15.0723 104.708 15.7369 103.469 15.7369H99.6866V12.2128H99.7071Z" fill="black"/>
</svg>
