<svg width="44" height="44" viewBox="0 0 44 44" fill="none" xmlns="http://www.w3.org/2000/svg">
<rect width="44" height="44" rx="8" fill="#F7F7F7"/>
<path fill-rule="evenodd" clip-rule="evenodd" d="M22 11.25C21.4388 11.25 20.9816 11.4861 20.5656 11.8036C20.1759 12.1009 19.7461 12.5307 19.2432 13.0337L19.2078 13.069C18.6932 13.5837 18.2445 13.7863 17.5521 13.7863C17.4653 13.7863 17.3558 13.7832 17.2321 13.7797C16.9151 13.7708 16.505 13.7592 16.1461 13.7903C15.6213 13.8357 14.9653 13.9793 14.4675 14.4813C13.9734 14.9796 13.8333 15.6328 13.7892 16.1544C13.7592 16.5099 13.7707 16.917 13.7797 17.2318L13.7797 17.2318C13.7832 17.3558 13.7863 17.4655 13.7863 17.5521C13.7863 18.2445 13.5837 18.6932 13.069 19.2078L13.0337 19.2432C12.5307 19.7461 12.1009 20.1759 11.8036 20.5655C11.4861 20.9816 11.25 21.4388 11.25 22C11.25 22.5611 11.4861 23.0183 11.8036 23.4344C12.101 23.8242 12.5309 24.2541 13.0339 24.7571L13.0691 24.7922C13.4027 25.1258 13.5601 25.3422 13.6493 25.5464C13.7362 25.7453 13.7863 25.9971 13.7863 26.4479C13.7863 26.5347 13.7832 26.6442 13.7797 26.7679C13.7708 27.0849 13.7593 27.495 13.7903 27.8539C13.8357 28.3787 13.9793 29.0347 14.4814 29.5326C14.9796 30.0266 15.6329 30.1667 16.1544 30.2107C16.51 30.2408 16.917 30.2292 17.2318 30.2203C17.3558 30.2168 17.4655 30.2137 17.5521 30.2137C17.9933 30.2137 18.2413 30.2581 18.4365 30.3386C18.6315 30.4191 18.8401 30.5632 19.1542 30.8774C19.2213 30.9444 19.3096 31.0391 19.4115 31.1483L19.4118 31.1486L19.4118 31.1486L19.4118 31.1486C19.6418 31.3951 19.9407 31.7155 20.22 31.9596C20.6437 32.33 21.2516 32.75 22 32.75C22.7485 32.75 23.3563 32.33 23.7801 31.9596C24.0593 31.7155 24.3583 31.3951 24.5882 31.1486C24.6902 31.0392 24.7787 30.9445 24.8458 30.8773C25.1599 30.5632 25.3685 30.4191 25.5635 30.3386C25.7587 30.2581 26.0067 30.2137 26.4479 30.2137C26.5345 30.2137 26.6442 30.2168 26.7682 30.2203C27.083 30.2292 27.49 30.2408 27.8456 30.2107C28.3671 30.1667 29.0204 30.0266 29.5186 29.5326C30.0207 29.0347 30.1643 28.3787 30.2097 27.8539C30.2407 27.495 30.2292 27.0849 30.2203 26.7679L30.2203 26.7676C30.2168 26.644 30.2137 26.5346 30.2137 26.4479C30.2137 25.9971 30.2638 25.7453 30.3507 25.5464C30.4399 25.3422 30.5973 25.1258 30.9309 24.7922L30.9661 24.7571C31.4691 24.2541 31.8991 23.8242 32.1964 23.4344C32.5139 23.0183 32.75 22.5611 32.75 22C32.75 21.4388 32.5139 20.9816 32.1964 20.5655C31.8991 20.1759 31.4693 19.7461 30.9664 19.2432L30.931 19.2078C30.5973 18.8742 30.4399 18.6578 30.3507 18.4535C30.2638 18.2547 30.2137 18.0029 30.2137 17.5521C30.2137 17.4653 30.2168 17.3559 30.2203 17.2324L30.2203 17.2321C30.2292 16.9151 30.2407 16.505 30.2097 16.1461C30.1643 15.6213 30.0207 14.9653 29.5187 14.4675C29.0205 13.9734 28.3672 13.8332 27.8456 13.7892C27.49 13.7592 27.083 13.7707 26.7682 13.7796C26.6442 13.7832 26.5345 13.7863 26.4479 13.7863C25.7553 13.7863 25.3067 13.5836 24.7922 13.069L24.7568 13.0337C24.2539 12.5308 23.8241 12.1009 23.4344 11.8036C23.0184 11.4861 22.5612 11.25 22 11.25ZM25.7657 20.1432C26.1209 19.7203 26.0661 19.0895 25.6432 18.7343C25.2203 18.3791 24.5895 18.4339 24.2343 18.8568L20.6972 23.0676L19.666 22.1469C19.2541 21.7791 18.6219 21.8149 18.2541 22.2269C17.8862 22.6388 17.922 23.271 18.334 23.6388L20.134 25.246C20.3357 25.4261 20.6018 25.5168 20.8716 25.4975C21.1413 25.4781 21.3918 25.3503 21.5657 25.1432L25.7657 20.1432Z" fill="#25AAE1"/>
</svg>
