<svg width="164" height="33" viewBox="0 0 164 33" fill="none" xmlns="http://www.w3.org/2000/svg">
<path fill-rule="evenodd" clip-rule="evenodd" d="M50.3474 0H5.22167C2.36589 0 0.0540792 2.33447 0.0765789 5.16759V22.3929C0.0765789 25.2486 2.38856 27.5604 5.24434 27.5604H26.6172L36.3859 33L34.1647 27.5604H50.3474C53.2032 27.5604 55.515 25.2486 55.515 22.3929V5.16759C55.515 2.31181 53.2032 0 50.3474 0ZM4.26985 3.98901C3.63523 4.03434 3.15925 4.26099 2.84195 4.69162C2.52465 5.09959 2.41133 5.62087 2.47931 6.21016C3.81654 14.7096 5.06311 20.4437 6.21902 23.4128C6.67232 24.5007 7.19361 25.0221 7.80557 24.9767C8.75748 24.9087 9.89072 23.5941 11.228 21.033C11.9306 19.5824 13.0185 17.4067 14.4917 14.5055C15.7155 18.7891 17.3927 22.0076 19.5006 24.1607C20.09 24.7727 20.7019 25.0447 21.2911 24.9993C21.8125 24.954 22.2204 24.682 22.4924 24.1833C22.719 23.7527 22.8097 23.2541 22.7644 22.6875C22.6284 20.625 22.8324 17.7466 23.399 14.0522C23.9882 10.2445 24.7135 7.50206 25.5975 5.87019C25.7788 5.53022 25.8467 5.19024 25.8241 4.78228C25.7788 4.26098 25.5521 3.83036 25.1215 3.49039C24.6909 3.15041 24.2149 2.99176 23.6936 3.03708C23.0364 3.08241 22.5377 3.39972 22.1978 4.03434C20.7926 6.59547 19.7952 10.7431 19.2061 16.5C18.3447 14.3242 17.6194 11.7631 17.0528 8.74862C16.8035 7.41141 16.1916 6.77679 15.1943 6.84479C14.5144 6.8901 13.9477 7.34341 13.4944 8.20467L8.53084 17.6559C7.7149 14.3695 6.94429 10.3578 6.24168 5.62087C6.08303 4.44231 5.42574 3.89834 4.26985 3.98901ZM47.945 5.62095C49.5543 5.96093 50.7555 6.82219 51.5714 8.25007C52.2967 9.47398 52.6592 10.9472 52.6592 12.7151C52.6592 15.0495 52.0701 17.18 50.8914 19.1292C49.5315 21.3957 47.7637 22.5289 45.5652 22.5289C45.18 22.5289 44.772 22.4836 44.3412 22.3929C42.7321 22.053 41.5309 21.1918 40.7149 19.7638C39.9897 18.5173 39.627 17.0214 39.627 15.2761C39.627 12.9417 40.2164 10.8112 41.3949 8.8847C42.7775 6.61821 44.5453 5.48496 46.7212 5.48496C47.1064 5.48496 47.5144 5.53029 47.945 5.62095ZM46.9932 17.8826C47.8318 17.1347 48.3984 16.0241 48.7157 14.5282C48.8064 14.0069 48.8743 13.4403 48.8743 12.851C48.8743 12.1938 48.7383 11.4912 48.4663 10.7885C48.1264 9.90461 47.673 9.42865 47.129 9.31532C46.3132 9.15666 45.5199 9.60997 44.772 10.7205C44.1601 11.5818 43.7747 12.4884 43.5707 13.4177C43.4573 13.939 43.412 14.5056 43.412 15.0722C43.412 15.7295 43.548 16.4321 43.82 17.1347C44.1601 18.0186 44.6132 18.4945 45.1572 18.6079C45.7238 18.7212 46.3358 18.4719 46.9932 17.8826ZM37.3605 8.25007C36.5445 6.82219 35.3207 5.96093 33.7341 5.62095C33.3034 5.53029 32.8955 5.48496 32.5101 5.48496C30.3344 5.48496 28.5666 6.61821 27.184 8.8847C26.0053 10.8112 25.4161 12.9417 25.4161 15.2761C25.4161 17.0214 25.7788 18.5173 26.504 19.7638C27.32 21.1918 28.5212 22.053 30.1304 22.3929C30.5609 22.4836 30.9689 22.5289 31.3544 22.5289C33.5528 22.5289 35.3206 21.3957 36.6805 19.1292C37.8592 17.18 38.4484 15.0495 38.4484 12.7151C38.4484 10.9472 38.0857 9.47398 37.3605 8.25007ZM34.5047 14.5282C34.1875 16.0241 33.6207 17.1347 32.7821 17.8826C32.1249 18.4719 31.5129 18.7212 30.9464 18.6079C30.4024 18.4945 29.949 18.0186 29.6091 17.1347C29.3371 16.4321 29.2011 15.7295 29.2011 15.0722C29.2011 14.5056 29.2464 13.939 29.3598 13.4177C29.5638 12.4884 29.949 11.5818 30.5609 10.7205C31.309 9.60997 32.1023 9.15666 32.9181 9.31532C33.4621 9.42865 33.9155 9.90461 34.2554 10.7885C34.5274 11.4912 34.6634 12.1938 34.6634 12.851C34.6634 13.4403 34.6181 14.0069 34.5047 14.5282Z" fill="black"/>
<path fill-rule="evenodd" clip-rule="evenodd" d="M61.2491 8.04575C59.7305 9.54163 58.9825 11.4455 58.9825 13.7573C58.9825 16.2278 59.7305 18.2449 61.2265 19.7635C62.7223 21.2821 64.6715 22.0526 67.0966 22.0526C67.7992 22.0526 68.5925 21.9393 69.4538 21.6899V18.0182C68.6605 18.2449 67.9805 18.3583 67.3912 18.3583C66.1899 18.3583 65.2381 17.9503 64.5128 17.157C63.7876 16.341 63.4249 15.2532 63.4249 13.8706C63.4249 12.5787 63.7876 11.5135 64.4902 10.6975C65.2154 9.85893 66.0993 9.45096 67.1873 9.45096C67.8899 9.45096 68.6378 9.56428 69.4538 9.79093V6.11923C68.7059 5.91524 67.8673 5.82458 66.9832 5.82458C64.6715 5.80191 62.7677 6.54987 61.2491 8.04575ZM76.9785 5.80191C74.8934 5.80191 73.2615 6.50453 72.0828 7.88708C70.9043 9.26964 70.3377 11.2188 70.3377 13.712C70.3377 16.4091 70.9269 18.4716 72.0828 19.8995C73.2388 21.3274 74.9387 22.0526 77.1599 22.0526C79.313 22.0526 80.9674 21.3274 82.1234 19.8995C83.2793 18.4716 83.8686 16.4544 83.8686 13.8706C83.8686 11.2868 83.2793 9.29231 82.1008 7.88708C80.8995 6.50453 79.1996 5.80191 76.9785 5.80191ZM78.769 17.5876C78.361 18.2223 77.7491 18.5396 76.9785 18.5396C76.2532 18.5396 75.7092 18.2223 75.3239 17.5876C74.9387 16.953 74.7574 15.6838 74.7574 13.7573C74.7574 10.7882 75.5053 9.31496 77.0239 9.31496C78.6104 9.31496 79.4262 10.8109 79.4262 13.8253C79.4036 15.6838 79.177 16.953 78.769 17.5876ZM95.0651 6.23255L94.2491 9.70028C94.0451 10.5842 93.8412 11.4908 93.6599 12.4201L93.2065 14.8226C92.7759 12.4201 92.1866 9.56428 91.4387 6.23255H86.1805L84.2085 21.6673H88.1522L89.2175 11.0375L91.9146 21.6673H94.7251L97.3088 11.0602L98.4194 21.6673H102.544L100.459 6.23255H95.0651ZM113.945 6.23255L113.129 9.70028C112.925 10.5842 112.721 11.4908 112.54 12.4201L112.086 14.8226C111.656 12.4201 111.066 9.56428 110.318 6.23255H105.06L103.088 21.6673H107.032L108.097 11.0375L110.794 21.6673H113.605L116.166 11.0602L117.277 21.6673H121.402L119.316 6.23255H113.945ZM126.773 15.5705H130.468V12.3747H126.773V9.54161H131.034V6.25521H122.603V21.6899H131.057V18.4036H126.773V15.5705ZM142.797 13.1227C143.228 12.4201 143.454 11.6948 143.454 10.9468C143.454 9.4963 142.888 8.34038 141.755 7.50178C140.621 6.66318 139.058 6.23255 137.108 6.23255H132.258V21.6673H136.428V14.6413H136.496L139.873 21.6673H144.27L140.939 14.7092C141.732 14.3466 142.367 13.8253 142.797 13.1227ZM136.406 12.8733V9.20164C137.403 9.22431 138.106 9.38296 138.536 9.70028C138.967 10.0176 139.171 10.5162 139.171 11.2415C139.171 12.3067 138.242 12.8507 136.406 12.8733ZM145.902 8.04575C144.384 9.54163 143.636 11.4455 143.636 13.7573C143.636 16.2278 144.384 18.2449 145.88 19.7635C147.376 21.2821 149.324 22.0526 151.75 22.0526C152.453 22.0526 153.246 21.9393 154.107 21.6899V18.0182C153.314 18.2449 152.634 18.3583 152.044 18.3583C150.843 18.3583 149.892 17.9503 149.166 17.157C148.441 16.341 148.079 15.2532 148.079 13.8706C148.079 12.5787 148.441 11.5135 149.143 10.6975C149.869 9.85893 150.752 9.45096 151.84 9.45096C152.542 9.45096 153.291 9.56428 154.107 9.79093V6.11923C153.359 5.91524 152.521 5.82458 151.637 5.82458C149.347 5.80191 147.421 6.54987 145.902 8.04575ZM159.434 18.3583V15.5478H163.127V12.3521H159.434V9.51896H163.716V6.23255H155.286V21.6673H163.74V18.3809H159.434V18.3583Z" fill="black"/>
</svg>
