<svg width="88" height="25" viewBox="0 0 88 25" fill="none" xmlns="http://www.w3.org/2000/svg">
<path d="M15.7174 12.4877L25.2208 2.96087C25.5358 2.63974 25.7116 2.21461 25.7116 1.76371C25.7116 0.824028 24.9478 0.0609188 24.0081 0.0609188C23.5504 0.0609188 23.1213 0.24033 22.7977 0.567892C22.7967 0.569788 13.3029 10.0581 13.3029 10.0581L3.76565 0.553682C3.44339 0.23597 3.01636 0.0609188 2.56357 0.0609188C1.62502 0.0609188 0.860962 0.823652 0.860962 1.76239C0.860962 2.2203 1.04378 2.64998 1.37191 2.97375L10.8739 12.4744L1.37684 21.9893C1.04302 22.318 0.860962 22.7486 0.860962 23.2086C0.860962 24.1481 1.62502 24.9103 2.56357 24.9103C3.01712 24.9103 3.44453 24.7343 3.76565 24.413L13.2881 14.9034L22.7744 24.3783C23.1108 24.7261 23.5449 24.9114 24.0081 24.9114C24.9468 24.9114 25.7107 24.1481 25.7107 23.2086C25.7107 22.7552 25.5351 22.3294 25.2155 22.0082L15.7174 12.4877Z" fill="black"/>
<path d="M72.2136 12.4848C72.2136 14.191 73.601 15.5789 75.3093 15.5789C77.0136 15.5789 78.4015 14.191 78.4015 12.4848C78.4015 10.7782 77.0136 9.39049 75.3093 9.39049C73.601 9.39049 72.2136 10.7782 72.2136 12.4848Z" fill="black"/>
<path d="M66.345 12.4863C66.345 7.54538 70.3645 3.52519 75.3059 3.52519C80.245 3.52519 84.2653 7.54538 84.2653 12.4863C84.2653 17.4261 80.245 21.4446 75.3059 21.4446C70.3645 21.4446 66.345 17.4261 66.345 12.4863ZM62.8201 12.4863C62.8201 19.3699 68.4212 24.9703 75.3059 24.9703C82.1905 24.9703 87.7945 19.3699 87.7945 12.4863C87.7945 5.60179 82.1905 -0.000141144 75.3059 -0.000141144C68.4212 -0.000141144 62.8201 5.60179 62.8201 12.4863Z" fill="black"/>
<path d="M61.9337 0.213459L61.4098 0.211945C59.8372 0.211945 58.3204 0.70793 57.0536 1.68418C56.8867 0.920307 56.2039 0.345505 55.3906 0.345505C54.4545 0.345505 53.7044 1.09555 53.7021 2.03353C53.7021 2.03694 53.7078 23.0628 53.7078 23.0628C53.7103 23.999 54.474 24.7601 55.4106 24.7601C56.3471 24.7601 57.1106 23.999 57.1131 23.0607C57.1131 23.0565 57.1138 10.1304 57.1138 10.1304C57.1138 5.82069 57.5079 4.08019 61.1995 3.61887C61.5407 3.57643 61.9119 3.58306 61.9134 3.58306C62.9236 3.54839 63.6414 2.85424 63.6414 1.91607C63.6414 0.977331 62.8751 0.213459 61.9337 0.213459Z" fill="black"/>
<path d="M29.239 10.4308C29.239 10.3842 29.2426 10.3357 29.2448 10.2878C30.2334 6.37995 33.7726 3.48815 37.9875 3.48815C42.2534 3.48815 45.825 6.451 46.7629 10.4308H29.239ZM50.2498 10.1093C49.5161 6.63534 47.6141 3.7818 44.718 1.94922C40.4845 -0.738541 34.8941 -0.589817 30.805 2.31809C27.4695 4.69098 25.5441 8.57268 25.5441 12.5713C25.5441 13.5738 25.6649 14.5859 25.9165 15.582C27.176 20.5366 31.4353 24.2872 36.5134 24.9088C38.0203 25.0912 39.487 25.0039 41.0059 24.6106C42.311 24.2931 43.5739 23.7637 44.7375 23.0181C45.9453 22.2417 46.9543 21.2179 47.9315 19.9923C47.9512 19.9698 47.9711 19.9499 47.9908 19.9262C48.669 19.085 48.5432 17.8888 47.7979 17.3178C47.1693 16.836 46.1141 16.6407 45.2837 17.7041C45.1052 17.9583 44.9061 18.22 44.6869 18.4816C44.0267 19.2112 43.2075 19.918 42.2259 20.4663C40.9769 21.1336 39.5535 21.5149 38.0404 21.5235C33.0877 21.4683 30.4374 18.0112 29.4947 15.5436C29.3301 15.0828 29.2032 14.6048 29.1147 14.1126C29.1031 14.0206 29.0946 13.9317 29.0912 13.8499C30.1152 13.8499 46.8641 13.847 46.8641 13.847C49.3007 13.7959 50.612 12.076 50.2498 10.1093Z" fill="black"/>
</svg>
